<svg width="15" height="27" viewBox="0 0 15 27" fill="none" xmlns="http://www.w3.org/2000/svg">
<path d="M13.0106 0H9.62047C6.84581 0 4.5884 2.25741 4.5884 5.03206V8.84579H1.43015C0.640231 8.84579 0 9.48602 0 10.2759C0 11.0659 0.640231 11.7061 1.43015 11.7061H4.5884V24.9482C4.5884 25.7381 5.22863 26.3783 6.01855 26.3783C6.80847 26.3783 7.4487 25.7381 7.4487 24.9482V11.7061H12.3351C13.125 11.7061 13.7652 11.0659 13.7652 10.2759C13.7652 9.48602 13.125 8.84579 12.3351 8.84579H7.4487V5.03206C7.4487 3.83455 8.42295 2.8603 9.62047 2.8603H13.0104C13.8003 2.8603 14.4406 2.22007 14.4406 1.43015C14.4406 0.64023 13.8003 0 13.0106 0Z" fill="white"/>
</svg>
