<svg width="22" height="22" viewBox="0 0 22 22" fill="none" xmlns="http://www.w3.org/2000/svg">
<path d="M15.9286 0H6.07104C2.72347 0 0 2.7236 0 6.07117V15.9287C0 19.2764 2.72347 21.9999 6.07104 21.9999H15.9286C19.2764 21.9999 21.9999 19.2763 21.9999 15.9287V6.07117C22 2.7236 19.2764 0 15.9286 0ZM20.0481 15.9287C20.0481 18.2001 18.2001 20.0479 15.9287 20.0479H6.07104C3.79977 20.0481 1.95193 18.2001 1.95193 15.9287V6.07117C1.95193 3.7999 3.79977 1.95193 6.07104 1.95193H15.9286C18.2 1.95193 20.0479 3.7999 20.0479 6.07117V15.9287H20.0481Z" fill="white"/>
<path d="M10.9999 5.33118C7.87404 5.33118 5.33105 7.87416 5.33105 11C5.33105 14.1257 7.87404 16.6685 10.9999 16.6685C14.1257 16.6685 16.6687 14.1257 16.6687 11C16.6687 7.87416 14.1257 5.33118 10.9999 5.33118ZM10.9999 14.7165C8.95046 14.7165 7.28299 13.0493 7.28299 10.9999C7.28299 8.95032 8.95033 7.28298 10.9999 7.28298C13.0494 7.28298 14.7167 8.95032 14.7167 10.9999C14.7167 13.0493 13.0493 14.7165 10.9999 14.7165Z" fill="white"/>
<path d="M16.907 3.67627C16.5309 3.67627 16.1615 3.82852 15.8959 4.09529C15.629 4.36075 15.4756 4.73031 15.4756 5.10769C15.4756 5.48389 15.6291 5.85333 15.8959 6.12009C16.1614 6.38556 16.5309 6.53911 16.907 6.53911C17.2844 6.53911 17.6526 6.38556 17.9194 6.12009C18.1862 5.85333 18.3384 5.48376 18.3384 5.10769C18.3384 4.73031 18.1862 4.36075 17.9194 4.09529C17.6539 3.82852 17.2844 3.67627 16.907 3.67627Z" fill="white"/>
</svg>
