<svg width="22" height="22" viewBox="0 0 22 22" fill="none" xmlns="http://www.w3.org/2000/svg">
<g clip-path="url(#clip0_1_1011)">
<path d="M2.65593 0.190063C4.09726 0.190063 5.31099 1.4038 5.31099 2.84513C5.31099 4.3623 4.02138 5.53814 2.65593 5.5002C1.25254 5.53814 0.000865942 4.3623 0.000865942 2.84513C-0.037074 1.36586 1.1767 0.190063 2.65593 0.190063Z" fill="white"/>
<path d="M4.13573 21.8099H1.10136C0.684147 21.8099 0.342773 21.4686 0.342773 21.0514V7.77604C0.342773 7.35883 0.646207 7.01746 1.06342 7.01746H4.13569C4.5529 7.01746 4.89427 7.35883 4.89427 7.77604V21.0893C4.89432 21.4686 4.55294 21.8099 4.13573 21.8099Z" fill="white"/>
<path d="M21.9621 11.6448C21.9621 8.83798 19.876 6.63806 17.0692 6.63806H16.2727C14.7555 6.63806 13.2763 7.35871 12.4797 8.53454C12.2142 8.80004 12.1004 8.91386 12.1004 8.91386V7.39669C12.1004 7.24497 11.8728 7.01737 11.7211 7.01737H7.92814C7.77642 7.01737 7.54883 7.16909 7.54883 7.35875V21.5065C7.54883 21.6582 7.77642 21.8099 7.92814 21.8099H12.1004C12.2521 21.8099 12.4797 21.6582 12.4797 21.5065V13.3136C12.4797 11.9103 13.5417 10.7344 14.9451 10.6965C15.6657 10.6965 16.3105 10.962 16.8036 11.4551C17.2588 11.9103 17.4484 12.5551 17.4484 13.2757V21.4306C17.4484 21.5823 17.676 21.8099 17.8278 21.8099H21.6207C21.7724 21.8099 22 21.5823 22 21.4306V11.6448H21.9621Z" fill="white"/>
</g>
<defs>
<clipPath id="clip0_1_1011">
<rect width="22" height="22" fill="white"/>
</clipPath>
</defs>
</svg>
